<?xml version="1.0" standalone="no"?>
<!DOCTYPE svg PUBLIC "-//W3C//DTD SVG 20010904//EN"
 "http://www.w3.org/TR/2001/REC-SVG-20010904/DTD/svg10.dtd">
<svg version="1.0" xmlns="http://www.w3.org/2000/svg"
 width="980.000000pt" height="980.000000pt" viewBox="0 0 980.000000 980.000000"
 preserveAspectRatio="xMidYMid meet">
<metadata>
Created by potrace 1.14, written by Peter Selinger 2001-2017
</metadata>
<g transform="translate(0.000000,980.000000) scale(0.100000,-0.100000)"
fill="#000000" stroke="none">
<path d="M40 7465 c-16 -41 -41 -413 -38 -555 l3 -125 490 -32 c525 -33 1252
-71 2010 -103 259 -11 568 -24 687 -30 119 -5 242 -10 274 -10 l57 0 -7 -102
c-4 -57 -18 -218 -32 -358 -56 -582 -82 -921 -109 -1430 -19 -373 -30 -830
-21 -904 7 -56 11 -62 89 -143 131 -136 318 -266 361 -250 21 8 56 66 56 95 0
33 25 27 57 -14 35 -45 71 -64 121 -64 37 0 72 22 72 46 0 5 4 15 9 22 7 11
23 7 83 -21 l74 -34 -7 -79 c-4 -43 -11 -104 -14 -135 l-7 -57 134 -4 c116 -4
142 -8 200 -32 37 -15 128 -42 203 -61 145 -37 203 -59 276 -106 25 -16 54
-29 65 -29 11 0 48 25 82 55 71 62 85 65 190 40 79 -19 103 -35 149 -99 52
-71 123 -146 139 -146 19 0 44 -40 44 -71 0 -50 20 -87 52 -98 64 -23 90 -15
164 49 71 62 96 70 148 50 14 -5 60 -12 103 -16 91 -8 104 -16 144 -95 15 -32
40 -66 54 -78 34 -26 163 -76 240 -92 53 -11 65 -10 97 5 32 16 46 34 97 135
33 65 67 124 75 131 26 21 62 3 94 -46 17 -25 32 -50 34 -54 2 -5 59 -21 127
-35 68 -15 214 -56 325 -92 216 -70 277 -79 333 -50 39 21 69 69 85 137 l12
53 151 -6 c97 -3 166 -11 195 -21 25 -9 54 -16 65 -16 11 0 58 25 104 55 122
80 142 81 178 11 9 -17 21 -34 27 -38 18 -13 245 -9 269 4 12 6 42 33 68 60
25 26 53 48 62 48 38 0 87 -31 143 -90 108 -113 237 -190 425 -256 55 -19 114
-43 131 -54 18 -11 42 -20 52 -20 19 0 19 23 13 1062 -7 1152 -14 1363 -52
1713 -31 291 -45 479 -45 625 0 168 -17 318 -60 550 -53 280 -78 473 -90 680
-5 96 -12 192 -16 213 l-7 37 -951 0 c-1179 1 -2738 16 -3111 30 -912 34
-2462 108 -3690 175 -247 13 -639 34 -870 45 -409 20 -635 33 -782 46 -72 7
-73 7 -83 -21z"/>
</g>
</svg>
